<svg width="35" height="35" viewBox="0 0 35 35" fill="none" xmlns="http://www.w3.org/2000/svg">
<path d="M32.2656 3.28125H2.73438C2.29941 3.28176 1.8824 3.45477 1.57484 3.76234C1.26727 4.0699 1.09426 4.48691 1.09375 4.92188V30.0781C1.09426 30.5131 1.26727 30.9301 1.57484 31.2377C1.8824 31.5452 2.29941 31.7182 2.73438 31.7188H8.75V27.6977C8.75011 27.454 8.81534 27.2147 8.93894 27.0047C9.06254 26.7946 9.24001 26.6214 9.45301 26.5029L15.7406 23.0082L13.6719 17.8363V13.6719C13.6719 12.6566 14.0752 11.6829 14.7931 10.965C15.511 10.2471 16.4847 9.84375 17.5 9.84375C18.5153 9.84375 19.489 10.2471 20.2069 10.965C20.9248 11.6829 21.3281 12.6566 21.3281 13.6719V17.8363L19.2594 23.008L25.547 26.5029C25.76 26.6214 25.9375 26.7946 26.0611 27.0047C26.1846 27.2147 26.2499 27.454 26.25 27.6977V31.7188H32.2656C32.7006 31.7182 33.1176 31.5452 33.4252 31.2377C33.7327 30.9301 33.9057 30.5131 33.9062 30.0781V4.92188C33.9057 4.48691 33.7327 4.0699 33.4252 3.76234C33.1176 3.45477 32.7006 3.28176 32.2656 3.28125V3.28125ZM31.7188 29.5312H28.4375V27.6977C28.4373 27.0639 28.2678 26.4417 27.9464 25.8955C27.6251 25.3492 27.1636 24.8988 26.6097 24.5907L22.0059 22.0322L23.5156 18.2575V13.6719C23.5156 12.0764 22.8818 10.5463 21.7537 9.41819C20.6255 8.29004 19.0954 7.65625 17.5 7.65625C15.9046 7.65625 14.3745 8.29004 13.2463 9.41819C12.1182 10.5463 11.4844 12.0764 11.4844 13.6719V18.2575L12.9941 22.0322L8.39029 24.5911C7.83648 24.8991 7.37503 25.3495 7.05368 25.8957C6.73234 26.4419 6.56276 27.064 6.5625 27.6977V29.5312H3.28125V5.46875H31.7188V29.5312Z" fill="#DFDFDF"/>
</svg>
