<svg width="19" height="19" viewBox="0 0 19 19" fill="none" xmlns="http://www.w3.org/2000/svg">
<path d="M16.9555 12.1595C16.8614 12.2259 14.9109 14.323 14.9109 15.7947C14.9109 17.3465 15.881 18.3373 16.9555 18.3914C17.8816 18.4371 19 17.4659 19 15.7947C19 14.2368 17.0495 12.2259 16.9555 12.1595ZM6.30948 18.3914C6.6959 18.784 7.20908 19 7.75498 19C8.30087 19 8.81405 18.784 9.20047 18.3914L16.3564 11.1208L15.6337 10.3865L7.75498 2.38162L5.4109 0L3.9654 1.46865L6.30948 3.85027L0.599053 9.65216C0.212633 10.0448 0 10.5662 0 11.1208C0 11.6754 0.212633 12.1968 0.599053 12.5895L6.30948 18.3914ZM7.75498 5.31892L13.4654 11.1208H2.04455L7.75498 5.31892Z" fill="#AE4837"/>
</svg>
