<svg width="35" height="35" viewBox="0 0 35 35" fill="none" xmlns="http://www.w3.org/2000/svg">
<path d="M18.5354 3.33958C18.3998 3.20289 18.2385 3.0944 18.0608 3.02036C17.8831 2.94632 17.6925 2.9082 17.5 2.9082C17.3075 2.9082 17.1169 2.94632 16.9392 3.02036C16.7614 3.0944 16.6001 3.20289 16.4646 3.33958L3.33958 16.4646C3.20289 16.6001 3.0944 16.7614 3.02036 16.9392C2.94632 17.1169 2.9082 17.3075 2.9082 17.5C2.9082 17.6925 2.94632 17.8831 3.02036 18.0608C3.0944 18.2385 3.20289 18.3998 3.33958 18.5354C3.47584 18.6706 3.63745 18.7775 3.81513 18.8501C3.99281 18.9226 4.18307 18.9594 4.37499 18.9583H5.83333V29.1667C5.83333 29.9402 6.14062 30.6821 6.6876 31.2291C7.23458 31.776 7.97644 32.0833 8.74999 32.0833H26.25C27.0235 32.0833 27.7654 31.776 28.3124 31.2291C28.8594 30.6821 29.1667 29.9402 29.1667 29.1667V18.9583H30.625C31.0118 18.9583 31.3827 18.8047 31.6562 18.5312C31.9297 18.2577 32.0833 17.8868 32.0833 17.5C32.0844 17.3081 32.0477 17.1178 31.9751 16.9401C31.9025 16.7625 31.7956 16.6008 31.6604 16.4646L18.5354 3.33958ZM8.74999 29.1667V15.1812L17.5 6.43124L26.25 15.1812V29.1667H8.74999Z" fill="#DFDFDF"/>
</svg>
