<svg width="26" height="25" viewBox="0 0 26 25" fill="none" xmlns="http://www.w3.org/2000/svg">
<path d="M9.09961 12.5C9.09961 12.8315 8.96264 13.1495 8.71885 13.3839C8.47505 13.6183 8.14439 13.75 7.79961 13.75C7.45483 13.75 7.12417 13.6183 6.88037 13.3839C6.63657 13.1495 6.49961 12.8315 6.49961 12.5C6.49961 12.1685 6.63657 11.8505 6.88037 11.6161C7.12417 11.3817 7.45483 11.25 7.79961 11.25C8.14439 11.25 8.47505 11.3817 8.71885 11.6161C8.96264 11.8505 9.09961 12.1685 9.09961 12.5V12.5ZM14.2996 12.5C14.2996 12.8315 14.1626 13.1495 13.9188 13.3839C13.6751 13.6183 13.3444 13.75 12.9996 13.75C12.6548 13.75 12.3242 13.6183 12.0804 13.3839C11.8366 13.1495 11.6996 12.8315 11.6996 12.5C11.6996 12.1685 11.8366 11.8505 12.0804 11.6161C12.3242 11.3817 12.6548 11.25 12.9996 11.25C13.3444 11.25 13.6751 11.3817 13.9188 11.6161C14.1626 11.8505 14.2996 12.1685 14.2996 12.5V12.5ZM19.4996 12.5C19.4996 12.8315 19.3626 13.1495 19.1188 13.3839C18.8751 13.6183 18.5444 13.75 18.1996 13.75C17.8548 13.75 17.5242 13.6183 17.2804 13.3839C17.0366 13.1495 16.8996 12.8315 16.8996 12.5C16.8996 12.1685 17.0366 11.8505 17.2804 11.6161C17.5242 11.3817 17.8548 11.25 18.1996 11.25C18.5444 11.25 18.8751 11.3817 19.1188 11.6161C19.3626 11.8505 19.4996 12.1685 19.4996 12.5V12.5ZM12.9996 2.5C10.2414 2.5 7.59608 3.55357 5.6457 5.42893C3.69532 7.3043 2.59961 9.84784 2.59961 12.5C2.59961 15.1522 3.69532 17.6957 5.6457 19.5711C7.59608 21.4464 10.2414 22.5 12.9996 22.5C15.7579 22.5 18.4031 21.4464 20.3535 19.5711C22.3039 17.6957 23.3996 15.1522 23.3996 12.5C23.3996 9.84784 22.3039 7.3043 20.3535 5.42893C18.4031 3.55357 15.7579 2.5 12.9996 2.5V2.5ZM3.89961 12.5C3.89961 11.3509 4.13499 10.2131 4.59231 9.15152C5.04962 8.08992 5.71992 7.12533 6.56494 6.31282C7.40995 5.5003 8.41313 4.85578 9.51719 4.41605C10.6213 3.97633 11.8046 3.75 12.9996 3.75C14.1946 3.75 15.378 3.97633 16.482 4.41605C17.5861 4.85578 18.5893 5.5003 19.4343 6.31282C20.2793 7.12533 20.9496 8.08992 21.4069 9.15152C21.8642 10.2131 22.0996 11.3509 22.0996 12.5C22.0996 14.8206 21.1409 17.0462 19.4343 18.6872C17.7277 20.3281 15.4131 21.25 12.9996 21.25C10.5861 21.25 8.27152 20.3281 6.56494 18.6872C4.85836 17.0462 3.89961 14.8206 3.89961 12.5Z" fill="#BFBFC0"/>
</svg>
