<svg width="17" height="17" viewBox="0 0 17 17" fill="none" xmlns="http://www.w3.org/2000/svg">
<path fill-rule="evenodd" clip-rule="evenodd" d="M16.7603 3.0158L15.8126 2.79217L13.2515 5.33954L11.8009 3.86168L14.2988 1.24018L14.0801 0.277622C13.5523 0.100972 13.0001 0.00748885 12.4436 0.000523006C11.8364 -0.00881665 11.2338 0.107022 10.6734 0.34082C10.1322 0.585846 9.6431 0.9324 9.23244 1.36171C8.77531 1.79487 8.41328 2.31844 8.16936 2.89912C7.69972 4.05477 7.69972 5.34818 8.16936 6.50384C5.63647 8.9965 3.13628 11.5222 0.66944 14.0803C0.4143 14.4145 0.292804 14.8314 0.324393 15.2507C0.34929 15.7017 0.552035 16.1243 0.888132 16.4259C1.03879 16.59 1.2186 16.7261 1.41907 16.8246C1.62561 16.9157 1.84795 16.968 2.07271 16.9789C2.45664 16.9716 2.82477 16.8258 3.11028 16.5693C4.99104 14.7986 8.59459 11.161 10.6418 9.02932C11.197 9.2651 11.7936 9.38664 12.3962 9.38542C13.0028 9.38494 13.6031 9.26284 14.1618 9.02634C14.7204 8.78983 15.226 8.44371 15.6486 8.00843C16.5168 7.12276 17.0016 5.93093 16.9984 4.69054C17.0125 4.12294 16.932 3.55697 16.7603 3.0158V3.0158ZM2.37524 15.7076C2.32847 15.7492 2.2721 15.7784 2.21122 15.7927C2.15132 15.8031 2.09009 15.8031 2.03019 15.7927C1.96739 15.7832 1.90757 15.7595 1.85524 15.7234C1.79908 15.6906 1.75159 15.6447 1.71673 15.5898C1.54664 15.416 1.38748 15.0854 1.54664 14.8994C3.21113 13.1287 6.63851 9.66738 8.78169 7.55146C8.90319 7.71189 9.03684 7.86502 9.1802 8.00843C9.32356 8.15792 9.47786 8.29647 9.64188 8.42287C7.56917 10.5497 4.18916 13.9697 2.37645 15.7076H2.37524ZM15.8831 4.69054C15.8855 5.62028 15.5235 6.51356 14.8723 7.17957C14.2224 7.81725 13.3484 8.17448 12.4381 8.17448C11.5278 8.17448 10.6538 7.81725 10.0039 7.17957C9.52766 6.68237 9.2023 6.0601 9.06572 5.38517C8.92915 4.71023 8.98696 4.01038 9.23244 3.36703C9.39585 2.92918 9.6493 2.53051 9.97641 2.19681C10.3035 1.8631 10.697 1.60179 11.1314 1.42977C11.5439 1.25708 11.9867 1.16865 12.4338 1.16969H12.7424L10.5349 3.44603V4.29191L12.8372 6.58405H13.6391L15.8831 4.37698V4.69054V4.69054ZM2.74823 6.90855H4.60832L5.46487 7.77995L6.28861 6.96081L5.48066 6.1368V6.08454L5.54991 4.08044L5.28262 3.54933L1.80785 1.26205L1.08981 1.34226L0.0801871 2.37409L0 3.10208L2.23309 6.64846L2.74823 6.90976V6.90855ZM1.6001 2.49441L4.4115 4.3466L4.36412 5.71143H3.05683L1.24411 2.84079L1.6001 2.49441V2.49441ZM10.2324 10.9532L11.0512 10.1353L14.8249 14.0062C15.1427 14.3403 15.32 14.7839 15.32 15.2452C15.32 15.7065 15.1427 16.1501 14.8249 16.4843C14.5859 16.7297 14.2785 16.8975 13.9429 16.9658C13.6072 17.0341 13.2588 16.9997 12.9429 16.8671C12.7413 16.7776 12.5605 16.6473 12.412 16.4843L8.59459 12.5915L9.41955 11.7675L13.2248 15.6493C13.276 15.7058 13.3396 15.7495 13.4107 15.7769C13.5505 15.8337 13.707 15.8337 13.8468 15.7769C13.9179 15.7494 13.9815 15.7057 14.0327 15.6493C14.0859 15.5966 14.1273 15.5332 14.1542 15.4634C14.1821 15.3921 14.1969 15.3163 14.198 15.2397C14.1967 15.1633 14.1824 15.0877 14.1554 15.0161C14.1285 14.9462 14.0871 14.8829 14.0339 14.8302L10.2324 10.9532Z" fill="#AE4837"/>
</svg>
