<svg width="31" height="29" viewBox="0 0 31 29" fill="none" xmlns="http://www.w3.org/2000/svg">
<path d="M28.7857 7.25H22.1429V2.41667C22.1429 1.77573 21.9096 1.16104 21.4943 0.707825C21.079 0.254612 20.5158 0 19.9286 0H11.0714C10.4842 0 9.92095 0.254612 9.50569 0.707825C9.09043 1.16104 8.85714 1.77573 8.85714 2.41667V7.25H2.21429C1.62702 7.25 1.06381 7.50461 0.648549 7.95783C0.23329 8.41104 0 9.02573 0 9.66667V26.5833C0 27.2243 0.23329 27.839 0.648549 28.2922C1.06381 28.7454 1.62702 29 2.21429 29H28.7857C29.373 29 29.9362 28.7454 30.3514 28.2922C30.7667 27.839 31 27.2243 31 26.5833V9.66667C31 9.02573 30.7667 8.41104 30.3514 7.95783C29.9362 7.50461 29.373 7.25 28.7857 7.25ZM11.0714 2.41667H19.9286V7.25H11.0714V2.41667ZM2.21429 26.5833V9.66667H28.7857V26.5833H2.21429Z" fill="#DFDFDF"/>
</svg>
