<svg width="32" height="32" viewBox="0 0 32 32" fill="none" xmlns="http://www.w3.org/2000/svg">
<path d="M29.7143 8H22.8571V2.66667C22.8571 1.95942 22.6163 1.28115 22.1877 0.781048C21.759 0.280951 21.1776 0 20.5714 0H11.4286C10.8224 0 10.241 0.280951 9.81233 0.781048C9.38367 1.28115 9.14286 1.95942 9.14286 2.66667V8H2.28571C1.67951 8 1.09812 8.28095 0.66947 8.78105C0.240816 9.28115 0 9.95942 0 10.6667V29.3333C0 30.0406 0.240816 30.7189 0.66947 31.219C1.09812 31.719 1.67951 32 2.28571 32H29.7143C30.3205 32 30.9019 31.719 31.3305 31.219C31.7592 30.7189 32 30.0406 32 29.3333V10.6667C32 9.95942 31.7592 9.28115 31.3305 8.78105C30.9019 8.28095 30.3205 8 29.7143 8ZM11.4286 2.66667H20.5714V8H11.4286V2.66667ZM2.28571 29.3333V10.6667H29.7143V29.3333H2.28571Z" fill="#DFDFDF"/>
</svg>
