<svg width="48" height="49" viewBox="0 0 48 49" fill="none" xmlns="http://www.w3.org/2000/svg">
<g clip-path="url(#clip0_236_221)">
<path d="M15.0039 0H20.1599V2.20092H17.1599V4.40183H20.1599V6.60275H15.0039V0ZM21.1899 0H26.3479V1.91508H23.3479V2.29687H26.3479V6.69871H21.1899V4.68971H24.1899V4.30587H21.1899V0ZM27.3799 0H32.5339V1.91508H29.5339V2.29687H32.5339V6.69871H27.3799V4.68971H30.3799V4.30587H27.3799V0Z" fill="#CFC6C6"/>
<path fill-rule="evenodd" clip-rule="evenodd" d="M23.982 49.0003L10.094 45.064L6 9.63086H42L37.908 45.0599L23.982 49.0003ZM14.094 25.6702L14.476 30.0149H29.23L28.736 35.6499L23.988 36.9606H23.984L19.244 35.6539L18.94 32.1892H14.666L15.262 39.0125L23.982 41.4829L32.716 39.0125L33.78 26.836L33.884 25.6702L34.652 16.8727H13.328L13.716 21.2194H29.988L29.6 25.6702H14.094V25.6702Z" fill="#CFC6C6"/>
</g>
<defs>
<clipPath id="clip0_236_221">
<rect width="48" height="49" fill="white"/>
</clipPath>
</defs>
</svg>
