<svg width="29" height="21" viewBox="0 0 29 21" fill="none" xmlns="http://www.w3.org/2000/svg">
<path d="M9.06445 0H12.1795V0.94325H10.367V1.8865H12.1795V2.82975H9.06445V0ZM12.8018 0H15.9181V0.82075H14.1056V0.984375H15.9181V2.87087H12.8018V2.00987H14.6143V1.84537H12.8018V0ZM16.5416 0H19.6555V0.82075H17.843V0.984375H19.6555V2.87087H16.5416V2.00987H18.3541V1.84537H16.5416V0Z" fill="#CFC6C6"/>
<path fill-rule="evenodd" clip-rule="evenodd" d="M14.4891 20.9996L6.09846 19.3126L3.625 4.12695H25.375L22.9028 19.3108L14.4891 20.9996ZM8.51513 11.001L8.74592 12.863H17.6598L17.3613 15.278L14.4928 15.8397H14.4903L11.6266 15.2797L11.4429 13.7948H8.86071L9.22079 16.7191L14.4891 17.7778L19.7659 16.7191L20.4087 11.5006L20.4716 11.001L20.9356 7.23058H8.05233L8.28675 9.09345H18.1178L17.8833 11.001H8.51513V11.001Z" fill="#CFC6C6"/>
</svg>
