<svg width="34" height="23" viewBox="0 0 34 23" fill="none" xmlns="http://www.w3.org/2000/svg">
<path d="M7.19629 0H8.72912V1.02446H10.1316V0H11.6645V3.10117H10.1316V2.06329H8.72912V3.10117H7.19771V0H7.19629ZM13.679 1.02829H12.3303V0H16.5619V1.02829H15.2118V3.10117H13.679V1.02829V1.02829ZM17.2334 0H18.8314L19.8145 1.08962L20.7963 0H22.3943V3.10117H20.8685V1.564L19.8145 2.66704H19.7876L18.7322 1.56496V3.10117H17.2334V0V0ZM23.1565 0H24.6907V2.07671H26.844V3.10212H23.1565V0V0Z" fill="#CFC6C6"/>
<path fill-rule="evenodd" clip-rule="evenodd" d="M7.1485 21.1524L4.25 4.52051H29.75L26.8501 21.1505L16.9858 23.0001L7.1485 21.1524ZM13.0092 12.0482L12.7344 9.95905H24.2732L24.5423 7.91972H9.44067L10.2538 14.0885H20.7046L20.3547 16.7335L16.9915 17.3488H16.9887L13.6312 16.7354L13.4158 15.1091H10.387L10.8092 18.3119L16.9858 19.4715L23.1724 18.3119L23.9261 12.5964L23.9997 12.0492H13.0092V12.0482Z" fill="#CFC6C6"/>
</svg>
