<svg width="53" height="53" viewBox="0 0 53 53" fill="none" xmlns="http://www.w3.org/2000/svg">
<path d="M11.2183 0H13.6077V2.36071H15.7939V0H18.1833V7.14617H15.7939V4.75454H13.6077V7.14617H11.2205V0H11.2183ZM21.3236 2.36954H19.2213V0H25.8176V2.36954H23.713V7.14617H21.3236V2.36954V2.36954ZM26.8643 0H29.3553L30.8879 2.51087L32.4183 0H34.9093V7.14617H32.5309V3.604L30.8879 6.14579H30.8459L29.2007 3.60621V7.14617H26.8643V0V0ZM36.0973 0H38.489V4.78546H41.8456V7.14837H36.0973V0V0Z" fill="#CFC6C6"/>
<path fill-rule="evenodd" clip-rule="evenodd" d="M11.1432 48.7426L6.625 10.417H46.375L41.8545 48.7382L26.4779 53.0003L11.1432 48.7426ZM20.2791 27.7634L19.8507 22.9493H37.8376L38.2572 18.25H14.7163L15.9839 32.465H32.2748L31.7293 38.56L26.4868 39.9777H26.4823L21.2486 38.5644L20.9129 34.8169H16.1915L16.8496 42.1971L26.4779 44.8692L36.1217 42.1971L37.2965 29.0266L37.4114 27.7657H20.2791V27.7634Z" fill="#CFC6C6"/>
</svg>
