<svg width="37" height="27" viewBox="0 0 37 27" fill="none" xmlns="http://www.w3.org/2000/svg">
<path d="M20.1818 22.5V18H25.2273V20.25H31.9545V15.75H23.5455C21.6955 15.75 20.1818 13.725 20.1818 11.25V4.5C20.1818 2.025 21.6955 0 23.5455 0H33.6364C35.4864 0 37 2.025 37 4.5V9H31.9545V6.75H25.2273V11.25H33.6364C35.4864 11.25 37 13.275 37 15.75V22.5C37 24.975 35.4864 27 33.6364 27H23.5455C21.6955 27 20.1818 24.975 20.1818 22.5ZM10.0909 0V20.25H5.04545V15.75H0V20.25C0 23.985 2.25364 27 5.04545 27H10.0909C12.8827 27 15.1364 23.985 15.1364 20.25V0H10.0909Z" fill="#CFC6C6"/>
</svg>
