<svg width="37" height="25" viewBox="0 0 37 25" fill="none" xmlns="http://www.w3.org/2000/svg">
<path d="M30.8337 4.16699L27.7503 19.2712L18.5003 21.3545L9.25033 19.2712L6.16699 4.16699H30.8337Z" stroke="#CFC6C6" stroke-width="2" stroke-linecap="round" stroke-linejoin="round"/>
<path d="M25.4375 8.33398H21.5833C21.3789 8.33398 21.1828 8.38886 21.0383 8.48653C20.8937 8.58421 20.8125 8.71668 20.8125 8.85482V11.9798C20.8125 12.118 20.8937 12.2504 21.0383 12.3481C21.1828 12.4458 21.3789 12.5007 21.5833 12.5007H23.7771C23.8875 12.5007 23.9965 12.5167 24.0969 12.5476C24.1973 12.5786 24.2867 12.6237 24.359 12.68C24.4314 12.7363 24.485 12.8024 24.5162 12.8739C24.5475 12.9454 24.5557 13.0206 24.5403 13.0944L23.8958 16.1465L20.8125 16.6673M11.5625 8.33398H16.1875V16.6673L13.1042 15.6257L11.5625 8.33398Z" stroke="#CFC6C6" stroke-width="2" stroke-linecap="round" stroke-linejoin="round"/>
</svg>
