<svg  viewBox="0 0 24 23" fill="none" xmlns="http://www.w3.org/2000/svg">
<path d="M19.5 20.125H4.5C4.10236 20.1244 3.72117 19.9728 3.44 19.7033C3.15882 19.4339 3.0006 19.0686 3 18.6875V4.3125C3.0006 3.93143 3.15882 3.56612 3.44 3.29666C3.72117 3.0272 4.10236 2.87557 4.5 2.875H12V4.3125H4.5V18.6875H19.5V11.5H21V18.6875C20.9994 19.0686 20.8412 19.4339 20.56 19.7033C20.2788 19.9728 19.8976 20.1244 19.5 20.125V20.125Z" fill="#D1D1D1"/>
<path d="M15 1.4375V2.875H19.9395L13.5 9.04619L14.5605 10.0625L21 3.89131V8.625H22.5V1.4375H15Z" fill="#D1D1D1"/>
</svg>
