<svg width="29" height="25" viewBox="0 0 29 25" fill="none" xmlns="http://www.w3.org/2000/svg">
<path fill-rule="evenodd" clip-rule="evenodd" d="M11.3937 9.34238H15.8815V11.2695C16.5279 10.1611 18.1857 9.1653 20.6761 9.1653C25.4502 9.1653 26.5837 11.3715 26.5837 15.4195V22.9163H21.7503V16.3413C21.7503 14.0361 21.1039 12.7361 19.4581 12.7361C17.1756 12.7361 16.227 14.1372 16.227 16.3403V22.9163H11.3937V9.34238V9.34238ZM3.10574 22.7393H7.93908V9.1653H3.10574V22.7393V22.7393ZM8.63145 4.73926C8.63163 5.0885 8.55128 5.43429 8.39509 5.75654C8.23889 6.07878 8.00995 6.37104 7.72158 6.61634C7.13723 7.11699 6.34626 7.39723 5.52241 7.39551C4.7 7.39503 3.91087 7.11551 3.32566 6.61738C3.03833 6.37125 2.81017 6.07866 2.65424 5.75637C2.49831 5.43409 2.41769 5.08845 2.41699 4.73926C2.41699 4.03405 2.74324 3.35905 3.32687 2.86113C3.91156 2.36234 4.70103 2.0827 5.52362 2.08301C6.3477 2.08301 7.13795 2.36322 7.72158 2.86113C8.30399 3.35905 8.63145 4.03405 8.63145 4.73926Z" fill="#BFBFC0"/>
</svg>
