<svg width="11" height="22" viewBox="0 0 11 22" fill="none" xmlns="http://www.w3.org/2000/svg">
<path d="M6.7928 11L0.468062 18.5151C0.16001 18.908 -0.00769931 19.4275 0.00027222 19.9644C0.00824375 20.5012 0.191272 21.0134 0.510795 21.3931C0.830317 21.7727 1.26139 21.9902 1.71319 21.9997C2.16499 22.0091 2.60225 21.8099 2.93285 21.4438L10.49 12.4643C10.8166 12.0758 11 11.5491 11 11C11 10.4509 10.8166 9.92419 10.49 9.53565L2.93285 0.556153C2.60225 0.190121 2.16499 -0.00914975 1.71319 0.000322147C1.26139 0.00979404 0.830317 0.227271 0.510795 0.606933C0.191272 0.986594 0.00824375 1.4988 0.00027222 2.03564C-0.00769931 2.57248 0.16001 3.09203 0.468062 3.48485L6.7928 11Z" fill="#AE4837"/>
</svg>
