<svg width="11" height="22" viewBox="0 0 11 22" fill="none" xmlns="http://www.w3.org/2000/svg">
<path d="M4.2072 11L10.5319 3.48485C10.84 3.09203 11.0077 2.57248 10.9997 2.03564C10.9918 1.4988 10.8087 0.986593 10.4892 0.606931C10.1697 0.22727 9.73861 0.00979474 9.28681 0.000322839C8.83501 -0.00914906 8.39775 0.190122 8.06715 0.556154L0.510025 9.53565C0.18344 9.92419 0 10.4509 0 11C0 11.5491 0.18344 12.0758 0.510025 12.4644L8.06715 21.4438C8.39775 21.8099 8.83501 22.0091 9.28681 21.9997C9.73861 21.9902 10.1697 21.7727 10.4892 21.3931C10.8087 21.0134 10.9918 20.5012 10.9997 19.9644C11.0077 19.4275 10.84 18.908 10.5319 18.5151L4.2072 11Z" fill="#AE4837"/>
</svg>
