<svg width="30" height="21" viewBox="0 0 30 21" fill="none" xmlns="http://www.w3.org/2000/svg">
<path d="M30 10.2279C30 8.83663 27.5112 7.518 23.695 6.70075C24.5762 3.97863 24.185 1.81213 22.46 1.11825C22.042 0.95438 21.569 0.871896 21.09 0.879375V1.83313C21.3712 1.83313 21.5975 1.8725 21.7875 1.94513C22.6188 2.27938 22.98 3.54988 22.6988 5.18525C22.6313 5.58775 22.5213 6.01125 22.3863 6.4435C21.1083 6.22793 19.8113 6.07213 18.5038 5.97713C17.7248 5.22488 16.875 4.50987 15.96 3.83688C17.9537 2.54013 19.825 1.82963 21.0975 1.82963V0.875C19.415 0.875 17.2137 1.71413 14.9875 3.16925C12.7625 1.72375 10.56 0.8925 8.87875 0.8925V1.84625C10.145 1.84625 12.0225 2.55325 14.0163 3.84125C13.16 4.47125 12.3038 5.18525 11.49 5.97713C10.1798 6.07108 8.88044 6.22837 7.60125 6.44788C7.46606 6.03819 7.35968 5.62411 7.2825 5.20713C6.995 3.57088 7.35 2.30038 8.17625 1.96263C8.35875 1.88563 8.5975 1.85063 8.87875 1.85063V0.896875C8.36625 0.896875 7.9 0.973875 7.4975 1.13575C5.77875 1.82963 5.39375 3.99088 6.28 6.70513C2.47625 7.52763 0 8.841 0 10.2279C0 11.6191 2.48875 12.9378 6.305 13.7541C5.42375 16.4771 5.815 18.6436 7.54 19.3366C7.9375 19.4994 8.4025 19.5764 8.915 19.5764C10.5975 19.5764 12.7988 18.7373 15.025 17.2821C17.25 18.7285 19.4512 19.5589 21.1337 19.5589C21.6164 19.566 22.093 19.4833 22.515 19.3191C24.2337 18.6261 24.6188 16.4649 23.7325 13.7506C27.5238 12.9334 30 11.6148 30 10.2279ZM22.0375 7.37275C21.8 7.94487 21.5247 8.50898 21.2125 9.06325C20.7015 8.36741 20.1403 7.69017 19.5312 7.03413C20.4 7.12425 21.2375 7.23538 22.0388 7.37275H22.0375ZM19.2375 11.9315C18.7797 12.491 18.288 13.0367 17.7638 13.5669C15.9291 13.6801 14.0838 13.6815 12.2487 13.5713C11.1962 12.5188 10.2757 11.4045 9.4975 10.241C10.2745 9.07472 11.1911 7.95656 12.2375 6.8985C14.0717 6.78507 15.9166 6.78332 17.7513 6.89325C18.2588 7.4025 18.755 7.94675 19.2313 8.52075C19.6963 9.08075 20.1187 9.6495 20.5037 10.2235C20.1145 10.8045 19.6921 11.3743 19.2375 11.9315V11.9315ZM21.2125 11.375C21.5425 11.9481 21.825 12.5221 22.0563 13.0786C21.2563 13.216 20.4113 13.3315 19.5375 13.4208C20.1441 12.7587 20.7031 12.076 21.2125 11.375V11.375ZM15.0125 15.9425C14.4438 15.5313 13.875 15.0736 13.3125 14.5723C13.8625 14.5898 14.425 14.6029 14.9937 14.6029C15.5687 14.6029 16.1375 14.5941 16.6937 14.5723C16.1437 15.0736 15.575 15.5313 15.0125 15.9425ZM10.4625 13.4208C9.61968 13.3353 8.78295 13.2226 7.955 13.083C8.18125 12.5309 8.4625 11.9613 8.78 11.3925C9.03125 11.7338 9.295 12.0768 9.5825 12.4198C9.87 12.7619 10.1625 13.0961 10.4625 13.4208ZM14.9812 4.51325C15.55 4.9245 16.1188 5.38213 16.6813 5.8835C16.1313 5.866 15.5688 5.85288 15 5.85288C14.425 5.85288 13.8563 5.86163 13.3 5.8835C13.85 5.38213 14.4187 4.9245 14.9812 4.51325ZM10.4562 7.035C9.84984 7.69557 9.29081 8.37687 8.78125 9.07638C8.46027 8.51853 8.17868 7.94997 7.9375 7.37275C8.7375 7.23975 9.5825 7.12425 10.4562 7.035ZM4.9225 12.3935C2.7575 11.7478 1.3575 10.8999 1.3575 10.2279C1.3575 9.55588 2.7575 8.70363 4.9225 8.06225C5.4475 7.90388 6.0225 7.76213 6.61625 7.63C6.965 8.46825 7.42375 9.3415 7.99125 10.2366C7.45546 11.0785 7.00232 11.945 6.635 12.8301C6.05431 12.7043 5.48279 12.5585 4.9225 12.3935V12.3935ZM8.2125 18.5098C7.38125 18.1773 7.02 16.905 7.30125 15.2705C7.36875 14.868 7.47875 14.4436 7.61375 14.0114C8.81125 14.217 10.12 14.3754 11.4962 14.4786C12.2752 15.2309 13.125 15.9459 14.04 16.6189C12.0463 17.9156 10.175 18.6261 8.9025 18.6261C8.66243 18.628 8.42542 18.5883 8.2125 18.5106V18.5098ZM22.7175 15.2486C23.005 16.884 22.65 18.1554 21.8237 18.4931C21.6412 18.5701 21.4025 18.6043 21.1212 18.6043C19.855 18.6043 17.9775 17.8981 15.9837 16.6093C16.8949 15.9391 17.739 15.2257 18.51 14.4743C19.8202 14.3803 21.1196 14.223 22.3988 14.0035C22.54 14.4358 22.6487 14.8505 22.7175 15.2486V15.2486ZM25.0712 12.3935C24.5462 12.5519 23.9712 12.6936 23.3775 12.8258C23.0037 11.9362 22.5443 11.0653 22.0025 10.2191C22.565 9.32925 23.0163 8.46038 23.3588 7.62563C23.9413 7.7519 24.5149 7.89761 25.0775 8.06225C27.2425 8.708 28.6425 9.55588 28.6425 10.2279C28.6362 10.8999 27.2362 11.7521 25.0712 12.3935V12.3935Z" fill="#CFC6C6"/>
<path d="M14.9942 12.1845C15.7355 12.1845 16.4464 11.9784 16.9706 11.6114C17.4947 11.2445 17.7892 10.7469 17.7892 10.228C17.7892 9.70909 17.4947 9.21144 16.9706 8.84453C16.4464 8.47761 15.7355 8.27148 14.9942 8.27148C14.2529 8.27148 13.542 8.47761 13.0179 8.84453C12.4937 9.21144 12.1992 9.70909 12.1992 10.228C12.1992 10.7469 12.4937 11.2445 13.0179 11.6114C13.542 11.9784 14.2529 12.1845 14.9942 12.1845V12.1845Z" fill="#CFC6C6"/>
</svg>
