<svg width="46" height="49" viewBox="0 0 46 49" fill="none" xmlns="http://www.w3.org/2000/svg">
<path d="M46 23.8654C46 20.6191 42.1839 17.5423 36.3323 15.6354C37.6836 9.28378 37.0837 4.22862 34.4387 2.60958C33.7978 2.22721 33.0724 2.03475 32.338 2.0522V4.27762C32.7692 4.27762 33.1162 4.36949 33.4075 4.53895C34.6821 5.31887 35.236 8.28337 34.8048 12.0992C34.7013 13.0384 34.5326 14.0266 34.3256 15.0352C32.3661 14.5322 30.3773 14.1686 28.3724 13.947C27.1781 12.1917 25.875 10.5234 24.472 8.95303C27.5291 5.92728 30.3983 4.26945 32.3495 4.26945V2.04199C29.7697 2.04199 26.3944 3.99995 22.9808 7.39524C19.5692 4.02241 16.192 2.08283 13.6141 2.08283V4.30824C15.5557 4.30824 18.4345 5.95791 21.4916 8.96324C20.1787 10.4332 18.8658 12.0992 17.618 13.947C15.609 14.1662 13.6167 14.5332 11.6552 15.0454C11.448 14.0894 11.2848 13.1233 11.1665 12.1503C10.7257 8.33237 11.27 5.36787 12.5369 4.57978C12.8167 4.40012 13.1828 4.31845 13.6141 4.31845V2.09303C12.8283 2.09303 12.1133 2.2727 11.4962 2.65041C8.86075 4.26945 8.27042 9.31237 9.62933 15.6456C3.79692 17.5648 0 20.6293 0 23.8654C0 27.1116 3.81608 30.1884 9.66767 32.0933C8.31642 38.447 8.91633 43.5021 11.5613 45.1191C12.1708 45.4989 12.8838 45.6785 13.6697 45.6785C16.2495 45.6785 19.6248 43.7206 23.0383 40.3253C26.45 43.7002 29.8252 45.6377 32.4051 45.6377C33.1451 45.6544 33.876 45.4613 34.523 45.0783C37.1584 43.4613 37.7487 38.4184 36.3898 32.0851C42.2031 30.1782 46 27.1014 46 23.8654ZM33.7908 17.2034C33.4266 18.5384 33.0045 19.8546 32.5258 21.1479C31.7422 19.5243 30.8818 17.944 29.9479 16.4133C31.28 16.6236 32.5642 16.8829 33.7928 17.2034H33.7908ZM29.4975 27.8405C28.7955 29.1461 28.0415 30.4192 27.2378 31.6564C24.4246 31.9205 21.5952 31.9239 18.7814 31.6666C17.1675 29.2108 15.756 26.6109 14.5628 23.896C15.7542 21.1747 17.1597 18.5656 18.7642 16.0968C21.5767 15.8322 24.4054 15.8281 27.2186 16.0846C27.9967 17.2728 28.7577 18.5427 29.4879 19.8821C30.2009 21.1887 30.8487 22.5158 31.4391 23.8552C30.8422 25.2107 30.1945 26.5403 29.4975 27.8405V27.8405ZM32.5258 26.542C33.0318 27.8793 33.465 29.2186 33.8196 30.5171C32.5929 30.8377 31.2972 31.1072 29.9575 31.3154C30.8875 29.7707 31.7447 28.1776 32.5258 26.542V26.542ZM23.0192 37.1995C22.1471 36.2399 21.275 35.1721 20.4125 34.0022C21.2558 34.0431 22.1183 34.0737 22.9904 34.0737C23.8721 34.0737 24.7442 34.0533 25.5971 34.0022C24.7537 35.1721 23.8817 36.2399 23.0192 37.1995ZM16.0425 31.3154C14.7502 31.1159 13.4672 30.853 12.1977 30.5273C12.5446 29.239 12.9758 27.9099 13.4627 26.5828C13.8479 27.3791 14.2523 28.1794 14.6932 28.9797C15.134 29.778 15.5825 30.558 16.0425 31.3154ZM22.9712 10.5312C23.8433 11.4908 24.7154 12.5586 25.5779 13.7285C24.7346 13.6877 23.8721 13.657 23 13.657C22.1183 13.657 21.2463 13.6775 20.3933 13.7285C21.2367 12.5586 22.1087 11.4908 22.9712 10.5312ZM16.0329 16.4153C15.1031 17.9566 14.2459 19.5464 13.4646 21.1785C12.9724 19.8769 12.5406 18.5502 12.1708 17.2034C13.3975 16.8931 14.6932 16.6236 16.0329 16.4153ZM7.54783 28.9185C4.22817 27.4117 2.0815 25.4334 2.0815 23.8654C2.0815 22.2974 4.22817 20.3088 7.54783 18.8122C8.35283 18.4427 9.2345 18.112 10.1449 17.8037C10.6797 19.7596 11.3831 21.7972 12.2532 23.8858C11.4317 25.8502 10.7369 27.8721 10.1737 29.9373C9.28328 29.6436 8.40695 29.3036 7.54783 28.9185V28.9185ZM12.5925 43.1897C11.3179 42.4139 10.764 39.4453 11.1952 35.6315C11.2987 34.6923 11.4674 33.7021 11.6744 32.6935C13.5106 33.1733 15.5173 33.5429 17.6276 33.7838C18.822 35.539 20.125 37.2073 21.528 38.7777C18.4709 41.8035 15.6017 43.4613 13.6505 43.4613C13.2824 43.4656 12.919 43.373 12.5925 43.1918V43.1897ZM34.8335 35.5805C35.2743 39.3963 34.73 42.3629 33.4631 43.151C33.1832 43.3306 32.8172 43.4102 32.3859 43.4102C30.4443 43.4102 27.5655 41.7626 24.5084 38.7552C25.9055 37.1915 27.1998 35.527 28.382 33.7736C30.391 33.5544 32.3833 33.1873 34.3448 32.6752C34.5613 33.6837 34.7281 34.6515 34.8335 35.5805V35.5805ZM38.4426 28.9185C37.6376 29.288 36.7559 29.6188 35.8455 29.9271C35.2724 27.8513 34.568 25.8193 33.7372 23.845C34.5997 21.7686 35.2916 19.7412 35.8167 17.7935C36.71 18.0881 37.5894 18.4281 38.4522 18.8122C41.7718 20.319 43.9185 22.2974 43.9185 23.8654C43.9089 25.4334 41.7622 27.422 38.4426 28.9185V28.9185Z" fill="#CFC6C6"/>
<path d="M22.9903 28.4301C24.1269 28.4301 25.217 27.9492 26.0207 27.093C26.8244 26.2369 27.2759 25.0757 27.2759 23.865C27.2759 22.6542 26.8244 21.493 26.0207 20.6369C25.217 19.7808 24.1269 19.2998 22.9903 19.2998C21.8536 19.2998 20.7636 19.7808 19.9598 20.6369C19.1561 21.493 18.7046 22.6542 18.7046 23.865C18.7046 25.0757 19.1561 26.2369 19.9598 27.093C20.7636 27.9492 21.8536 28.4301 22.9903 28.4301V28.4301Z" fill="#CFC6C6"/>
</svg>
