<svg width="28" height="18" viewBox="0 0 28 18" fill="none" xmlns="http://www.w3.org/2000/svg">
<g clip-path="url(#clip0_403_979)">
<path d="M19.402 12.4222C20.4345 12.3532 21.2185 11.775 21.1835 11.0812C21.166 10.7478 20.9486 10.4316 20.5768 10.1989C20.2049 9.96611 19.7074 9.83483 19.1885 9.8325H19.1161C18.0113 9.855 17.1561 10.4565 17.1911 11.1735C17.2285 11.5207 17.442 11.8207 17.7628 12.0285C16.5506 13.5787 14.698 14.7112 11.9178 15.6592C10.0301 16.3072 8.07012 16.5382 6.11129 16.3762C4.50712 16.2375 3.25996 15.7747 2.47596 15.012C1.33612 13.8795 1.22996 12.6532 2.19129 11.4277C2.86796 10.5495 3.93779 9.9015 4.61446 9.57825C4.43093 9.18997 4.27636 8.79627 4.15129 8.3985C-1.01588 10.827 -0.480377 14.1105 1.08529 15.66C2.26129 16.8165 4.64829 17.5335 7.28612 17.5335C8.00626 17.5366 8.7242 17.4822 9.42346 17.3715C13.9851 16.794 17.4408 15.036 19.4008 12.423L19.402 12.4222ZM25.6728 9.555C22.965 7.497 18.9738 6.36375 14.4133 6.36375H13.8428C13.6803 6.15556 13.4311 5.98047 13.123 5.85798C12.8148 5.73548 12.4598 5.67041 12.0975 5.67H12.0251C10.9215 5.69325 10.0651 6.29475 10.1013 7.01175C10.1363 7.7055 11.0276 8.25975 12.0963 8.25975H12.1686C12.545 8.24723 12.9082 8.16688 13.2169 8.02788C13.5255 7.88888 13.7671 7.69685 13.914 7.47375H14.5556C17.2635 7.47375 19.829 7.98225 22.1448 8.97675C23.9263 9.74025 25.2096 10.734 25.9213 11.937C26.528 12.9075 26.493 13.8555 25.8513 14.6655C24.8526 15.891 23.1785 16.5615 20.9688 16.5615C19.5443 16.5615 18.1898 16.284 17.477 16.0755C16.9641 16.3696 16.4291 16.6475 15.874 16.908C17.4058 17.3707 18.9738 17.625 20.4706 17.625C23.8913 17.625 26.4206 16.3995 27.3831 15.174C28.4156 13.833 28.3445 11.5207 25.6728 9.555ZM7.57196 12.8152C7.60696 13.509 8.49829 14.064 9.56696 14.064H9.63812C10.743 14.0415 11.5981 13.44 11.5631 12.723C11.5457 12.3895 11.3283 12.0734 10.9564 11.8406C10.5846 11.6079 10.0871 11.4766 9.56812 11.4742H9.49579C9.41105 11.4706 9.32606 11.4783 9.24612 11.4967C7.78546 9.92475 7.17996 8.214 7.39346 6.36375C7.53579 4.97625 8.24862 3.774 9.49579 2.7795C10.5295 1.9245 12.5245 1.50825 13.879 1.485C17.6555 1.4385 19.2585 4.491 19.3658 5.7165C19.829 5.7855 20.613 5.9475 21.1473 6.063C20.7191 2.3175 17.1573 0.375 13.7355 0.375C10.5295 0.375 7.57196 1.878 6.39596 4.098C4.75679 7.0575 5.82546 9.9015 7.82162 12.1447C7.64312 12.3067 7.53579 12.561 7.57196 12.8152V12.8152Z" fill="#CFC6C6"/>
</g>
<defs>
<clipPath id="clip0_403_979">
<rect width="28" height="18" fill="white"/>
</clipPath>
</defs>
</svg>
