<svg width="42" height="38" viewBox="0 0 42 38" fill="none" xmlns="http://www.w3.org/2000/svg">
<g clip-path="url(#clip0_236_229)">
<path d="M29.1024 26.2251C30.6512 26.0794 31.8272 24.8587 31.7747 23.3941C31.7485 22.6901 31.4224 22.0226 30.8646 21.5313C30.3069 21.0399 29.5607 20.7627 28.7822 20.7578H28.6737C27.0164 20.8053 25.7337 22.0752 25.7862 23.5888C25.8422 24.3219 26.1624 24.9552 26.6437 25.3938C24.8254 28.6666 22.0464 31.0574 17.8762 33.0587C15.0447 34.4267 12.1047 34.9144 9.16645 34.5724C6.7602 34.2795 4.88945 33.3026 3.71345 31.6923C2.0037 29.3015 1.84445 26.7127 3.28645 24.1256C4.30145 22.2715 5.9062 20.9035 6.9212 20.2211C6.6459 19.4014 6.41406 18.5702 6.22645 17.7305C-1.5243 22.8573 -0.721054 29.7892 1.62745 33.0603C3.39145 35.5018 6.97195 37.0155 10.9287 37.0155C12.0089 37.0221 13.0858 36.9072 14.1347 36.6735C20.9772 35.4543 26.1607 31.743 29.1007 26.2267L29.1024 26.2251ZM38.5087 20.172C34.4469 15.8273 28.4602 13.4349 21.6194 13.4349H20.7637C20.52 12.9954 20.1462 12.6258 19.6839 12.3672C19.2217 12.1086 18.6892 11.9712 18.1457 11.9703H18.0372C16.3817 12.0194 15.0972 13.2892 15.1514 14.8029C15.2039 16.2675 16.5409 17.4376 18.1439 17.4376H18.2524C18.817 17.4111 19.3619 17.2415 19.8248 16.9481C20.2878 16.6546 20.6502 16.2492 20.8704 15.7782H21.8329C25.8947 15.7782 29.7429 16.8517 33.2167 18.9512C35.8889 20.5631 37.8139 22.661 38.8814 25.2007C39.7914 27.2495 39.739 29.2508 38.7764 30.9608C37.2784 33.548 34.7672 34.9635 31.4527 34.9635C29.3159 34.9635 27.2842 34.3777 26.2149 33.9375C25.4456 34.5584 24.6431 35.145 23.8104 35.695C26.1082 36.6719 28.4602 37.2087 30.7054 37.2087C35.8364 37.2087 39.6304 34.6215 41.0742 32.0343C42.6229 29.2033 42.5162 24.3219 38.5087 20.172ZM11.3574 27.0547C11.4099 28.5193 12.7469 29.691 14.3499 29.691H14.4567C16.1139 29.6435 17.3967 28.3737 17.3442 26.86C17.318 26.156 16.9919 25.4885 16.4341 24.9972C15.8764 24.5058 15.1302 24.2287 14.3517 24.2237H14.2432C14.1161 24.2161 13.9886 24.2323 13.8687 24.2712C11.6777 20.9526 10.7694 17.341 11.0897 13.4349C11.3032 10.5057 12.3724 7.96766 14.2432 5.86816C15.7937 4.06316 18.7862 3.18441 20.8179 3.13533C26.4827 3.03716 28.8872 9.48133 29.0482 12.0685C29.7429 12.2142 30.9189 12.5562 31.7204 12.8C31.0782 4.89283 25.7354 0.791992 20.6027 0.791992C15.7937 0.791992 11.3574 3.96499 9.59345 8.65166C7.1347 14.8995 8.7377 20.9035 11.7319 25.6392C11.4642 25.9812 11.3032 26.518 11.3574 27.0547V27.0547Z" fill="#CFC6C6"/>
</g>
<defs>
<clipPath id="clip0_236_229">
<rect width="42" height="38" fill="white"/>
</clipPath>
</defs>
</svg>
