<svg width="25" height="20" viewBox="0 0 25 20" fill="none" xmlns="http://www.w3.org/2000/svg">
<path d="M6.26914 9.60328C6.17148 10.587 7.25171 11.3115 7.98892 11.3115C8.72715 11.2839 11.6023 9.34563 11.6023 9.34563C12.9545 7.97746 12.9604 7.3691 12.9604 6.89094C12.8476 4.77988 8.03999 7.99523 6.26914 9.60328V9.60328ZM18.162 8.78617C18.8146 7.68125 17.9366 6.45402 16.0268 7.53195C14.5092 8.30359 12.5445 9.89102 11.6042 10.5124C11.1681 11.2171 12.2737 13.1511 14.0256 12.13C16.0964 10.9264 17.6086 9.79465 18.162 8.78617V8.78617ZM19.9393 2.10211L20.3599 0H25V3.83727L23.2995 3.85352L21.2519 9.40172C21.3793 11.3598 20.1381 11.3917 19.9795 12.2902C19.5811 14.5484 16.4244 16.3961 15.2175 16.3961C14.4125 16.3775 13.8241 15.6394 13.6265 14.9963C15.896 12.9881 18.9479 11.4099 18.9479 11.4099C19.1385 10.3538 18.7197 10.0175 20.1283 9.11758L21.4724 3.46375C20.3245 2.8573 19.7888 2.86672 19.9393 2.10211V2.10211ZM10.8823 11.4654C12.0592 13.3624 13.7596 13.4119 16.396 10.9967C16.4586 11.22 16.5272 11.4539 16.4014 12.0156C11.0383 15.8531 5.98701 19.5879 4.44946 20H0V19.0453C0.723633 18.2425 6.6625 14.3238 10.8823 11.4654V11.4654ZM18.8085 15.1384C18.567 16.7805 16.6957 18.2173 14.1951 20H6.27012L12.9512 15.4979C14.1045 17.5977 16.153 17.2935 18.8085 15.1384H18.8085ZM9.43652 11.4113L0 17.8459V13.6713L5.55322 10.0547C5.85029 11.4008 7.67017 12.5862 9.43652 11.4114V11.4113Z" fill="#CFC6C6"/>
</svg>
