<svg width="41" height="45" viewBox="0 0 41 45" fill="none" xmlns="http://www.w3.org/2000/svg">
<path d="M10.2814 21.6074C10.1212 23.8206 11.8928 25.4508 13.1018 25.4508C14.3125 25.3889 19.0278 21.0277 19.0278 21.0277C21.2454 17.9493 21.2551 16.5805 21.2551 15.5046C21.0701 10.7547 13.1856 17.9893 10.2814 21.6074V21.6074ZM29.7856 19.7689C30.8559 17.2828 29.416 14.5216 26.284 16.9469C23.7951 18.6831 20.573 22.2548 19.031 23.653C18.3157 25.2386 20.1288 29.5901 23.002 27.2925C26.3982 24.5844 28.8782 22.038 29.7856 19.7689V19.7689ZM32.7005 4.72975L33.3902 0H41V8.63385L38.2111 8.67041L34.853 21.1539C35.062 25.5596 33.0265 25.6314 32.7664 27.6529C32.1129 32.7339 26.936 36.8913 24.9567 36.8913C23.6366 36.8493 22.6716 35.1887 22.3474 33.7417C26.0694 29.2232 31.0746 25.6723 31.0746 25.6723C31.3872 23.296 30.7003 22.5395 33.0104 20.5146L35.2148 7.79344C33.3321 6.42894 32.4537 6.45012 32.7005 4.72975V4.72975ZM17.847 25.7971C19.7771 30.0654 22.5658 30.1767 26.8894 24.7425C26.9922 25.2449 27.1047 25.7713 26.8982 27.0352C18.1028 35.6694 9.8187 44.0728 7.29712 45H0V42.852C1.18676 41.0456 10.9265 32.2285 17.847 25.7971V25.7971ZM30.8459 34.0615C30.4499 37.7561 27.381 40.989 23.28 45H10.283L21.2399 34.8702C23.1314 39.5947 26.491 38.9103 30.846 34.0615H30.8459ZM15.4759 25.6755L0 40.1532V30.7603L9.10729 22.623C9.59448 25.6518 12.5791 28.3189 15.4759 25.6757V25.6755Z" fill="#CFC6C6"/>
</svg>
