<svg width="32" height="32" viewBox="0 0 32 32" fill="none" xmlns="http://www.w3.org/2000/svg">
<path d="M15.9996 23.2223C19.9883 23.2223 23.2218 19.9888 23.2218 16.0001C23.2218 12.0113 19.9883 8.77783 15.9996 8.77783C12.0108 8.77783 8.77734 12.0113 8.77734 16.0001C8.77734 19.9888 12.0108 23.2223 15.9996 23.2223Z" stroke="#DDDFE9" stroke-width="1.5" stroke-linecap="round" stroke-linejoin="round"/>
<path d="M16 1V3.22222M4.33333 27.6667L5.44444 26.5556L4.33333 27.6667ZM26.5556 26.5556L27.6667 27.6667L26.5556 26.5556ZM26.5556 5.44444L27.6667 4.33333L26.5556 5.44444ZM5.44444 5.44444L4.33333 4.33333L5.44444 5.44444ZM3.22222 16H1H3.22222ZM31 16H28.7778H31ZM16 28.7778V31V28.7778Z" stroke="#DDDFE9" stroke-width="1.5" stroke-linecap="round" stroke-linejoin="round"/>
</svg>
