<svg width="68" height="62" viewBox="0 0 68 62" fill="none" xmlns="http://www.w3.org/2000/svg">
<path d="M23.375 9.67969V13.9499C18.6994 16.1254 14.963 19.6725 12.7676 24.0198C10.5722 28.3672 10.0455 33.2618 11.2725 37.9152C12.4995 42.5687 15.4087 46.7102 19.5315 49.6726C23.6543 52.635 28.7508 54.246 34 54.246C39.2492 54.246 44.3456 52.635 48.4684 49.6726C52.5912 46.7102 55.5004 42.5687 56.7274 37.9152C57.9544 33.2618 57.4278 28.3672 55.2324 24.0198C53.037 19.6725 49.3006 16.1254 44.625 13.9499V9.67969C50.5166 11.9226 55.3746 15.9564 58.3735 21.0955C61.3723 26.2346 62.3269 32.1619 61.075 37.8701C59.823 43.5783 56.4419 48.7152 51.5061 52.4076C46.5703 56.1001 40.3845 58.1203 34 58.1249C27.6101 58.1293 21.4162 56.1137 16.4732 52.4217C11.5302 48.7296 8.14379 43.5893 6.89083 37.8764C5.63786 32.1634 6.59579 26.2311 9.60146 21.0898C12.6071 15.9485 17.4747 11.9162 23.375 9.67969V9.67969Z" fill="#EBE3E3"/>
<path d="M34 3.875C35.4167 3.875 36.125 4.52083 36.125 5.8125V25.1875C36.125 26.4792 35.4167 27.125 34 27.125C32.5833 27.125 31.875 26.4792 31.875 25.1875V5.8125C31.875 4.52083 32.5833 3.875 34 3.875Z" fill="#EBE3E3"/>
</svg>
