<svg width="18" height="14" viewBox="0 0 18 14" fill="none" xmlns="http://www.w3.org/2000/svg">
<path d="M15.6192 10.0727C15.44 9.76066 15.216 9.56056 14.9472 9.47234C14.3898 9.28325 13.7675 9.29608 13.392 9.7267C12.9724 10.3159 12.9618 11.1989 13.392 11.7107C14.0482 12.3672 15.2072 12.0428 15.6192 11.3953V10.0727ZM17.0976 4.80233C17.6992 5.38566 18 6.21317 18 7.28489V13.4709C17.9902 13.6419 17.8578 13.7739 17.712 13.7761H15.9073C15.746 13.7658 15.6213 13.6255 15.6193 13.4709V13.2878C15.0168 13.7723 14.3196 13.9956 13.6225 14C12.8314 13.9755 12.1437 13.6788 11.6065 13.1555C10.9451 12.4539 10.6902 11.5913 10.685 10.7035C10.711 9.73209 10.9757 8.85783 11.6161 8.23112C12.2069 7.70146 12.9057 7.45258 13.6225 7.4477C14.4161 7.4477 15.0817 7.67152 15.6193 8.1192V7.52908C15.6193 6.59303 15.1585 6.12502 14.2369 6.12502C13.5201 6.12502 12.8673 6.44382 12.2785 7.08141C12.1222 7.22804 11.9018 7.17054 11.8177 7.00002L11.1074 5.69769C11.0433 5.56203 11.0626 5.43994 11.165 5.33142C11.6002 4.87016 12.1057 4.52086 12.6817 4.28346C14.1091 3.75858 16.0142 3.78751 17.0976 4.80233V4.80233ZM5.2898 3.78489L4.02261 8.5872H6.57617L5.2898 3.78489V3.78489ZM10.5697 13.2471C10.5953 13.3285 10.6081 13.3827 10.6081 13.4099C10.6027 13.5908 10.4717 13.713 10.3201 13.7151H8.05457C7.91376 13.7151 7.82418 13.6405 7.78577 13.4912L7.1522 11.1308H3.44663L2.81304 13.4912C2.77464 13.6405 2.67864 13.7151 2.52504 13.7151H0.297874C0.0584889 13.694 -0.0320361 13.5382 0.00988891 13.3285L3.77303 0.22384C3.82424 0.0746082 3.92022 0 4.06103 0H6.53781C6.6786 0 6.77457 0.0746082 6.82578 0.22384L10.5697 13.2471Z" fill="#AE4837"/>
</svg>
